<?xml version="1.0" encoding="UTF-8"?>
<svg width="160px" height="160px" viewBox="0 0 160 160" version="1.1" xmlns="http://www.w3.org/2000/svg" xmlns:xlink="http://www.w3.org/1999/xlink">
    <!-- Generator: Sketch 52.4 (67378) - http://www.bohemiancoding.com/sketch -->
    <title>图标/ic_applets</title>
    <desc>Created with Sketch.</desc>
    <defs>
        <linearGradient x1="50%" y1="4.78007587%" x2="50%" y2="98.1724861%" id="linearGradient-1">
            <stop stop-color="#F39DDC" offset="0%"></stop>
            <stop stop-color="#D457A7" offset="100%"></stop>
        </linearGradient>
        <path d="M34.5945946,11.8918919 C41.7589189,11.8918919 47.5675676,17.7011892 47.5675676,24.8648649 C47.5675676,32.0291892 41.7589189,37.8352432 34.5945946,37.8352432 C27.4309189,37.8352432 21.6216216,32.0265946 21.6216216,24.8622703 C21.6216216,17.6985946 27.4309189,11.8918919 34.5945946,11.8918919 Z M37.3468108,18.4425946 C36.5872432,17.683027 35.3528649,17.6836757 34.5945946,18.4425946 L32.7602162,20.2776216 C32.5072432,20.5305946 32.5072432,20.9418378 32.7602162,21.1948108 C33.0138378,21.4477838 33.4244324,21.4477838 33.6774054,21.1948108 L35.5117838,19.3597838 C35.7647568,19.1068108 36.1766486,19.1068108 36.4296216,19.3597838 L40.099027,23.0291892 C40.3513514,23.2821622 40.3513514,23.6934054 40.099027,23.9463784 L38.264,25.7814054 C38.0103784,26.035027 38.0103784,26.444973 38.264,26.6985946 C38.3904865,26.8250811 38.5565405,26.8886486 38.7225946,26.8886486 C38.8886486,26.8886486 39.0547027,26.8250811 39.1811892,26.6985946 L41.0162162,24.8635676 C41.7751351,24.1052973 41.7751351,22.8709189 41.0162162,22.112 L37.3468108,18.4425946 Z M35.971027,22.5705946 L32.3016216,26.24 C32.048,26.4936216 32.048,26.9035676 32.3016216,27.1571892 C32.4281081,27.2836757 32.5941622,27.3472432 32.7602162,27.3472432 C32.9262703,27.3472432 33.0916757,27.2836757 33.2188108,27.1571892 L36.8882162,23.4877838 C37.1418378,23.2348108 37.1418378,22.8242162 36.8882162,22.5705946 C36.6345946,22.3176216 36.2246486,22.3176216 35.971027,22.5705946 Z M35.5117838,28.5336216 L33.6774054,30.368 C33.4244324,30.6203243 33.0118919,30.6203243 32.7602162,30.368 L29.0908108,26.6985946 C28.8378378,26.4456216 28.8378378,26.0343784 29.0908108,25.7807568 L30.9258378,23.9463784 C31.1788108,23.6934054 31.1788108,23.2828108 30.9258378,23.0291892 C30.6722162,22.7762162 30.2616216,22.7762162 30.0086486,23.0291892 L28.1736216,24.8635676 C27.4147027,25.6224865 27.4147027,26.8575135 28.1736216,27.6157838 L31.843027,31.2851892 C32.2224865,31.6646486 32.7206486,31.8540541 33.2188108,31.8540541 C33.716973,31.8540541 34.2151351,31.6646486 34.5945946,31.2851892 L36.428973,29.4508108 C36.6825946,29.1971892 36.6825946,28.7865946 36.428973,28.5336216 C36.176,28.28 35.7654054,28.28 35.5117838,28.5336216 Z" id="path-2"></path>
        <filter x="-27.0%" y="-19.3%" width="154.0%" height="154.0%" filterUnits="objectBoundingBox" id="filter-3">
            <feOffset dx="0" dy="2" in="SourceAlpha" result="shadowOffsetOuter1"></feOffset>
            <feGaussianBlur stdDeviation="2" in="shadowOffsetOuter1" result="shadowBlurOuter1"></feGaussianBlur>
            <feColorMatrix values="0 0 0 0 0.905882353   0 0 0 0 0.505882353   0 0 0 0 0.776470588  0 0 0 1 0" type="matrix" in="shadowBlurOuter1"></feColorMatrix>
        </filter>
    </defs>
    <g id="图标/ic_applets" stroke="none" stroke-width="1" fill="none" fill-rule="evenodd">
        <g id="分组-2">
            <circle id="椭圆形" fill="#FDF5FF" cx="80" cy="80" r="80"></circle>
            <g id="分组" transform="translate(45.405405, 55.135135)">
                <path d="M27.2866143,0 L64.3544476,0 C65.0257778,0 65.6878883,0.156303099 66.2883442,0.456531066 C68.4244675,1.52459268 69.2903025,4.12209772 68.2222409,6.25822095 L49.0579925,44.5867178 C47.7028564,47.29699 44.9327514,49.009009 41.9025749,49.009009 L4.83474157,49.009009 C2.4464832,49.009009 0.510417249,47.0729431 0.510417249,44.6846847 C0.510417249,44.0133545 0.666720348,43.351244 0.966948315,42.7507881 L20.1311967,4.42229124 C21.4863328,1.71201901 24.2564378,5.8857049e-15 27.2866143,5.32907052e-15 Z" id="路径" fill="url(#linearGradient-1)"></path>
                <g id="Mask">
                    <use fill="black" fill-opacity="1" filter="url(#filter-3)" xlink:href="#path-2"></use>
                    <use fill="#FFFFFF" fill-rule="evenodd" xlink:href="#path-2"></use>
                </g>
            </g>
        </g>
    </g>
</svg>