<?xml version="1.0" encoding="UTF-8"?>
<svg width="160px" height="160px" viewBox="0 0 160 160" version="1.1" xmlns="http://www.w3.org/2000/svg" xmlns:xlink="http://www.w3.org/1999/xlink">
    <!-- Generator: Sketch 52.4 (67378) - http://www.bohemiancoding.com/sketch -->
    <title>图标/ic_circleoffriends</title>
    <desc>Created with Sketch.</desc>
    <defs>
        <linearGradient x1="50%" y1="0%" x2="50%" y2="100%" id="linearGradient-1">
            <stop stop-color="#DAB5FF" offset="0%"></stop>
            <stop stop-color="#BF82FF" offset="100%"></stop>
        </linearGradient>
        <path d="M35.4962963,27.1640249 C37.1523292,24.9527377 38.7506313,23.5373582 39.7430834,23.3803821 C40.0654682,23.392058 40.9599725,24.0939098 41.2395456,24.7373821 C41.4393333,25.1972831 41.2246264,25.6331837 40.6336957,26.4978495 C40.2204983,27.102402 39.793679,27.7277118 39.8676264,28.5145382 C39.9441685,29.2896888 40.4799629,29.8222399 40.9969462,30.3366285 C41.7396636,31.0741566 42.03221,31.4614076 41.9225862,31.9485524 C41.7669074,32.637431 41.0170547,33.4956102 40.7284003,33.5637196 L40.679102,33.5643683 C39.6418922,33.5643683 37.8249912,32.4765629 35.8212757,30.65577 C35.2498049,30.1342461 34.3955177,29.6224521 33.5379871,29.2060114 C34.3254622,28.6552978 34.9222308,27.9274995 35.4962963,27.1640249 M30.9057186,40.5575883 C30.7617157,40.7962958 29.8769414,41.1900333 29.1400619,41.1900333 C29.0855743,41.1900333 29.0336814,41.1874387 28.9850318,41.1822494 C28.495941,41.1258158 28.2293411,40.7223484 27.781116,39.7791945 C27.4658665,39.1162624 27.1395897,38.4306272 26.428008,38.1043504 C26.1763273,37.98824 25.8935109,37.9298604 25.5879913,37.9298604 C25.1469015,37.9298604 24.7207308,38.0466195 24.2692624,38.1705139 C23.856065,38.2840296 23.428597,38.4007887 23.0672926,38.4007887 C22.7903141,38.4007887 22.6047969,38.3346252 22.4329016,38.1763518 C21.9139723,37.691153 21.5474786,36.6052936 21.6369939,36.3166392 C21.8160245,35.9773892 22.7027448,34.7728247 26.5999033,33.5072861 C27.4982995,33.217983 28.3726953,32.8962469 29.1465485,32.3390466 C29.2853621,33.4891236 29.6116388,34.6015781 29.7660203,34.9661259 C30.8486364,37.5088791 31.270915,39.6072992 30.9057186,40.5575883 M29.0758444,23.9797454 C26.2859511,20.9654152 26.0952446,19.4754397 26.1017312,19.1128379 C26.1633541,18.7969397 27.0280199,18.0243838 27.694844,17.8648131 C27.7681427,17.8466505 27.8362522,17.8382179 27.9024157,17.8382179 C28.3577761,17.8382179 28.8364883,18.3091462 29.298984,18.763858 C29.8231025,19.2795439 30.3653835,19.8127437 31.1424801,19.8730692 C31.192427,19.8776098 31.2430226,19.8795558 31.2936182,19.8795558 C32.0129838,19.8795558 32.5909413,19.4696017 33.1500875,19.0726209 C33.6132319,18.7450468 34.137999,18.3727151 34.559629,18.3727151 C34.6627662,18.3727151 34.7665521,18.3947695 34.8774732,18.4414732 C35.5079722,18.7067757 36.2403111,19.6097126 36.2545816,19.9080969 C36.1092815,20.9368741 34.7224431,22.5630686 32.5448863,24.2580212 C31.8423859,24.8048429 31.1710212,25.3704757 30.6469026,26.0937333 C30.2382459,25.2803118 29.6609371,24.6082984 29.0758444,23.9797454 M40.679102,34.8616914 C40.7108864,34.8616914 40.7420222,34.8610427 40.7738066,34.8597454 C41.8090704,34.8208257 42.9513634,33.2789572 43.1874762,32.2346121 C43.6350526,30.2510052 41.2440862,29.2488231 41.1584629,28.3861032 C41.0773802,27.5214374 43.2387204,26.0891927 42.4298395,24.2216961 C42.0276693,23.2947588 40.7465628,22.0830591 39.7443807,22.0830591 C39.6853525,22.0830591 39.6276217,22.0875997 39.5711881,22.0966809 C37.5603373,22.4099845 35.3127251,25.2446354 34.4577892,26.3862797 C33.4594991,27.7147385 32.6065092,28.6027562 30.9829093,28.8375717 C30.9666928,28.8375717 30.9550169,28.8421123 30.941395,28.8466529 L30.9478816,28.8044899 C31.1586966,27.1679169 32.0324437,26.3006564 33.3414427,25.2822578 C34.4649245,24.4072133 37.2541691,22.1083569 37.5395802,20.0897221 C37.6829344,19.0596476 36.3648541,17.659836 35.3801859,17.2453413 C35.0954235,17.1259876 34.8216883,17.075392 34.559629,17.075392 C33.1273844,17.075392 32.0266057,18.5822327 31.2936182,18.5822327 C31.2799963,18.5822327 31.2657258,18.5815841 31.2514552,18.5802867 C30.4659261,18.5193126 29.5435294,16.5415435 27.9024157,16.5408949 C27.738953,16.5408949 27.5677063,16.5603547 27.3893244,16.603815 C26.3514659,16.8529011 24.8290573,18.0224378 24.8063542,19.0641883 C24.7641912,21.1035801 27.1577522,23.8169313 28.1236093,24.8612764 C29.2542263,26.0749222 29.9748893,27.0745096 29.9262397,28.7208126 L29.9262397,28.7629756 L29.889266,28.748705 C28.3227484,28.2563709 27.6234912,27.2425129 26.849638,25.7745919 C26.1867059,24.5103505 24.4191032,21.3500715 22.4821999,20.7195725 C22.3596028,20.6793555 22.2266272,20.661193 22.0878136,20.661193 C21.113524,20.661193 19.8246335,21.5712651 19.3199749,22.3593889 C18.2237369,24.072504 20.1308018,25.8284308 19.9128515,26.6723394 C19.6974959,27.5143021 17.1742025,28.1188547 17.3019888,30.1465706 C17.366855,31.2162135 18.2496833,32.9254367 19.2661359,33.1278191 C19.4516531,33.1641441 19.6462516,33.1810093 19.8479853,33.1810093 C21.8186191,33.1810093 24.4508876,31.5580582 25.5335037,30.8536117 C26.6394717,30.1329488 27.5657603,29.641912 28.710648,29.641912 C29.001897,29.641912 29.3074166,29.674345 29.634342,29.7418058 L29.6739103,29.7489411 C29.6641804,29.760617 29.6622344,29.770347 29.6531532,29.7859148 C28.8955165,31.2467006 27.7804673,31.7649812 26.2029224,32.2722345 C24.8498145,32.7113784 21.4417467,33.9068616 20.4895116,35.711438 C20.0056101,36.6299427 20.7658414,38.3943021 21.5487759,39.124695 C22.0177582,39.5580009 22.5425254,39.6981118 23.0672926,39.6981118 C24.0279603,39.6981118 24.9860334,39.2271835 25.5879913,39.2271835 C25.7002098,39.2271835 25.8001036,39.2440487 25.885727,39.2829684 C26.6712561,39.6429756 26.8262862,42.240865 28.837137,42.4711399 C28.9324902,42.4821671 29.0343301,42.4873564 29.1400619,42.4873564 C30.2155427,42.4873564 31.7626005,41.9301562 32.1063911,41.0453818 C32.840676,39.1435062 31.5180551,35.7691689 30.9595575,34.4575752 C30.4198711,33.1823066 30.2959768,31.1870238 30.433493,30.6103636 C31.5264877,32.1347183 33.7286936,36.5287515 34.8657973,39.3977815 C36.0761997,42.4523287 39.0580968,42.4873564 39.1845858,42.4873564 C40.0940093,42.4873564 41.9511273,41.9359941 42.4674619,39.8511959 C43.0013103,37.696991 41.7299337,36.6526459 40.9833243,36.4009652 C40.6486149,36.2874494 40.2886078,36.4671287 40.1705514,36.8005407 C40.0518463,37.1346014 40.2282822,37.5030412 40.5603969,37.6275842 C40.7316436,37.691153 41.568417,38.0855392 41.2084098,39.5391897 C40.8166183,41.1212752 39.3461025,41.1874387 39.1878291,41.1900333 C39.0970165,41.188736 36.9518928,41.1400864 36.0723078,38.9203666 C35.6928408,37.9629422 33.0871674,31.9524444 31.3623763,29.7145621 C32.4469384,30.0661366 34.1334584,30.8717742 34.94688,31.613843 C35.9847384,32.5569969 38.6578727,34.8616914 40.679102,34.8616914" id="path-2"></path>
        <filter x="-27.0%" y="-19.3%" width="154.0%" height="154.0%" filterUnits="objectBoundingBox" id="filter-4">
            <feOffset dx="0" dy="2" in="SourceAlpha" result="shadowOffsetOuter1"></feOffset>
            <feGaussianBlur stdDeviation="2" in="shadowOffsetOuter1" result="shadowBlurOuter1"></feGaussianBlur>
            <feColorMatrix values="0 0 0 0 0.797400909   0 0 0 0 0.430595013   0 0 0 0 1  0 0 0 1 0" type="matrix" in="shadowBlurOuter1"></feColorMatrix>
        </filter>
    </defs>
    <g id="图标/ic_circleoffriends" stroke="none" stroke-width="1" fill="none" fill-rule="evenodd">
        <g id="分组-2">
            <circle id="椭圆形" fill="#FDF4FF" cx="80" cy="80" r="80"></circle>
            <g id="分组" transform="translate(49.729730, 49.729730)">
                <path d="M36.6091574,5.10421052 C45.8459461,7.42345016 53.1170904,14.6945945 55.43633,23.9313832 C58.3546329,24.5647912 60.5405405,27.1622577 60.5405405,30.2702703 C60.5405405,33.3782829 58.3546329,35.9757494 55.43633,36.6091574 C53.1170904,45.8459461 45.8459461,53.1170904 36.6091574,55.43633 C35.9757494,58.3546329 33.3782829,60.5405405 30.2702703,60.5405405 C27.1622577,60.5405405 24.5647912,58.3546329 23.9313832,55.43633 C14.6945945,53.1170904 7.42345016,45.8459461 5.10421052,36.6091574 C2.18590765,35.9757494 0,33.3782829 0,30.2702703 C0,27.1622577 2.18590765,24.5647912 5.10421052,23.9313832 C7.42345016,14.6945945 14.6945945,7.42345016 23.9313832,5.10421052 C24.5647912,2.18590765 27.1622577,0 30.2702703,0 C33.3782829,0 35.9757494,2.18590765 36.6091574,5.10421052 Z" id="合并形状" fill="url(#linearGradient-1)"></path>
                <mask id="mask-3" fill="white">
                    <use xlink:href="#path-2"></use>
                </mask>
                <g id="icon_discover_moments">
                    <use fill="black" fill-opacity="1" filter="url(#filter-4)" xlink:href="#path-2"></use>
                    <use fill="#FFFFFF" fill-rule="evenodd" xlink:href="#path-2"></use>
                </g>
            </g>
        </g>
    </g>
</svg>