<?xml version="1.0" encoding="UTF-8"?>
<svg width="160px" height="160px" viewBox="0 0 160 160" version="1.1" xmlns="http://www.w3.org/2000/svg" xmlns:xlink="http://www.w3.org/1999/xlink">
    <!-- Generator: Sketch 52.4 (67378) - http://www.bohemiancoding.com/sketch -->
    <title>图标/ic_grouping</title>
    <desc>Created with Sketch.</desc>
    <defs>
        <linearGradient x1="50%" y1="0%" x2="50%" y2="100%" id="linearGradient-1">
            <stop stop-color="#FF95A6" offset="0%"></stop>
            <stop stop-color="#FF7575" offset="100%"></stop>
        </linearGradient>
        <path d="M32.5079423,30.0632626 C37.6346977,31.1240849 41.500069,35.6740181 41.4984115,41.1107325 C41.4984115,42.0605 40.9348497,42.7599797 39.8209862,43.1876237 C36.8523413,44.2119803 32.3836272,44.5832681 30.0995442,44.5832681 C28.0044201,44.5832681 23.6600212,44.2998296 20.6549105,43.2390073 L20.6118145,43.2207744 C19.8675814,42.8710346 18.9393619,42.4317878 18.9393619,41.1107325 C18.9393618,35.6723606 22.8063907,31.1240849 27.9331461,30.0632626 C25.5570722,29.1241992 23.994797,26.8300591 23.9915282,24.2751508 C23.9915281,20.8407385 26.7861319,18.0461347 30.2205442,18.0461347 C33.6549565,18.0461347 36.4512178,20.8407385 36.4512178,24.2751508 C36.4476799,26.8304703 34.8846676,29.1247279 32.5079423,30.0632626 Z M25.0059395,29.5394815 C20.0136613,31.7870318 17.0633043,37.0201712 17.7243888,42.4549933 C16.2442101,42.274322 14.1722915,41.942815 12.5031539,41.3643353 C11.3760302,40.9317188 10.8108108,40.2338966 10.8108108,39.2824716 C10.8108108,33.8440996 14.6761822,29.2958239 19.8045951,28.2350016 C17.4278698,27.2964669 15.8648575,25.0022093 15.8613196,22.4468898 C15.8649739,19.008214 18.6516598,16.221528 22.0903356,16.2178737 C23.5083167,16.2207309 24.8831416,16.7058944 25.9888577,17.5936277 C26.0070906,17.6085455 26.0170358,17.6284359 26.0319536,17.6450113 C26.0468714,17.6599291 26.0651042,17.6698743 26.0783645,17.6881072 C23.9898706,19.0290529 22.6025139,21.3661771 22.6025139,24.0314932 C22.6019703,26.122011 23.4729753,28.1181141 25.0059395,29.5394815 Z M40.7359455,28.2350016 C45.8627008,29.2958239 49.7280722,33.8440996 49.7297297,39.2791565 C49.7297297,40.2305815 49.1645103,40.9284037 48.0523044,41.3560477 C46.2886873,41.964363 44.1057138,42.3041577 42.5824393,42.4798564 L42.5509462,42.4831714 C43.2261117,37.0393673 40.2758762,31.7907706 35.2743681,29.537824 C36.9604249,27.9706634 37.8366669,25.7181335 37.6528311,23.4235781 C37.4689952,21.1290226 36.245295,19.0447365 34.3312307,17.7660113 L34.4969842,17.6300934 C35.605875,16.7184493 37.0114646,16.2162162 38.4485473,16.2162162 C41.8874923,16.2198687 44.6746535,19.0062884 44.6792209,22.4452323 C44.6754396,25.0008719 43.1126293,27.2954899 40.7359455,28.2350016 Z" id="path-2"></path>
        <filter x="-18.0%" y="-17.6%" width="136.0%" height="149.4%" filterUnits="objectBoundingBox" id="filter-3">
            <feOffset dx="0" dy="2" in="SourceAlpha" result="shadowOffsetOuter1"></feOffset>
            <feGaussianBlur stdDeviation="2" in="shadowOffsetOuter1" result="shadowBlurOuter1"></feGaussianBlur>
            <feColorMatrix values="0 0 0 0 1   0 0 0 0 0.533333333   0 0 0 0 0.57254902  0 0 0 1 0" type="matrix" in="shadowBlurOuter1"></feColorMatrix>
        </filter>
    </defs>
    <g id="图标/ic_grouping" stroke="none" stroke-width="1" fill="none" fill-rule="evenodd">
        <g id="分组-2">
            <circle id="椭圆形" fill="#FFF4F4" cx="80" cy="80" r="80"></circle>
            <g id="群组" transform="translate(49.729730, 49.729730)">
                <path d="M30.2702703,60.5405405 L30.2702703,60.5405405 C13.5524616,60.5405405 -1.50537259e-15,46.9880789 -3.55271368e-15,30.2702703 L0,30.2702703 C-2.04734108e-15,13.5524616 13.5524616,3.07101163e-15 30.2702703,0 L30.2702703,0 C46.9880789,-3.07101163e-15 60.5405405,13.5524616 60.5405405,30.2702703 L60.5405405,30.2702703 C60.5405405,46.9880789 46.9880789,60.5405405 30.2702703,60.5405405 Z" id="路径" fill="url(#linearGradient-1)"></path>
                <g id="合并形状">
                    <use fill="black" fill-opacity="1" filter="url(#filter-3)" xlink:href="#path-2"></use>
                    <use fill="#FFFFFF" fill-rule="evenodd" xlink:href="#path-2"></use>
                </g>
            </g>
        </g>
    </g>
</svg>