<?xml version="1.0" encoding="UTF-8"?>
<svg width="160px" height="160px" viewBox="0 0 160 160" version="1.1" xmlns="http://www.w3.org/2000/svg" xmlns:xlink="http://www.w3.org/1999/xlink">
    <!-- Generator: Sketch 52.4 (67378) - http://www.bohemiancoding.com/sketch -->
    <title>图标/ic_open</title>
    <desc>Created with Sketch.</desc>
    <defs>
        <linearGradient x1="50%" y1="0%" x2="50%" y2="95.9799409%" id="linearGradient-1">
            <stop stop-color="#63EEF7" offset="0%"></stop>
            <stop stop-color="#3AD1E5" offset="100%"></stop>
        </linearGradient>
        <path d="M40.9147609,41.2515592 L21.7879418,41.2515592 C21.0990211,41.2515592 20.5405405,40.6930787 20.5405405,40.004158 L20.5405405,29.7879418 C20.5855433,29.0617801 21.165595,28.4835132 21.8918919,28.4407484 L23.9168399,28.4407484 L23.8669439,23.7006237 C23.8669439,19.5670996 27.2178272,16.2162162 31.3513513,16.2162162 C35.4848755,16.2162162 38.8357588,19.5670996 38.8357588,23.7006237 C38.8357588,24.3895444 38.2772783,24.9480249 37.5883576,24.9480249 C36.8994369,24.9480249 36.3409563,24.3895444 36.3409563,23.7006237 C36.3332595,22.3850105 35.803241,21.1263415 34.8675036,20.201521 C33.9317662,19.2767006 32.6669643,18.7614887 31.3513513,18.7692308 C28.5945946,18.7692308 25.9459459,20.993763 25.9459459,23.7172557 L25.9459459,28.4365904 L40.8108108,28.4365904 C41.5379254,28.4775277 42.1189844,29.0567988 42.1621622,29.7837838 L42.1621622,40.004158 C42.1621622,40.6930787 41.6036816,41.2515592 40.9147609,41.2515592 Z M31.3513513,30.5696466 C30.2398807,30.5633005 29.2630165,31.3050194 28.9705644,32.3773435 C28.6781124,33.4496676 29.1431536,34.5846334 30.1039501,35.1434511 L30.1039501,37.5426195 C30.1039501,38.2315402 30.6624307,38.7900208 31.3513513,38.7900208 C32.040272,38.7900208 32.5987526,38.2315402 32.5987526,37.5426195 L32.5987526,35.1559252 C33.3658482,34.7229806 33.841954,33.9120137 33.8461538,33.031185 C33.8279544,31.6663515 32.7163061,30.5695252 31.3513513,30.5696466 Z" id="path-2"></path>
        <filter x="-32.4%" y="-20.0%" width="164.8%" height="155.9%" filterUnits="objectBoundingBox" id="filter-3">
            <feOffset dx="0" dy="2" in="SourceAlpha" result="shadowOffsetOuter1"></feOffset>
            <feGaussianBlur stdDeviation="2" in="shadowOffsetOuter1" result="shadowBlurOuter1"></feGaussianBlur>
            <feColorMatrix values="0 0 0 0 0.317647059   0 0 0 0 0.88627451   0 0 0 0 0.937254902  0 0 0 1 0" type="matrix" in="shadowBlurOuter1"></feColorMatrix>
        </filter>
    </defs>
    <g id="图标/ic_open" stroke="none" stroke-width="1" fill="none" fill-rule="evenodd">
        <g id="分组-2">
            <circle id="椭圆形" fill="#EAFEFD" cx="80" cy="80" r="80"></circle>
            <g id="分组" transform="translate(49.729730, 49.729730)">
                <path d="M34.9725523,3.41640786 L54.356726,17.4998345 C57.1606253,19.5369865 58.3338904,23.1479251 57.2628962,26.4441064 L49.8588006,49.2315693 C48.7878064,52.5277506 45.7161586,54.7594333 42.2503485,54.7594333 L18.290192,54.7594333 C14.824382,54.7594333 11.7527341,52.5277506 10.6817399,49.2315693 L3.27764439,26.4441064 C2.20665017,23.1479251 3.37991523,19.5369865 6.1838145,17.4998345 L25.5679883,3.41640786 C28.3718875,1.3792558 32.168653,1.3792558 34.9725523,3.41640786 Z" id="多边形" fill="url(#linearGradient-1)"></path>
                <g id="形状">
                    <use fill="black" fill-opacity="1" filter="url(#filter-3)" xlink:href="#path-2"></use>
                    <use fill="#FFFFFF" fill-rule="evenodd" xlink:href="#path-2"></use>
                </g>
            </g>
        </g>
    </g>
</svg>