<?xml version="1.0" encoding="UTF-8"?>
<svg width="160px" height="160px" viewBox="0 0 160 160" version="1.1" xmlns="http://www.w3.org/2000/svg" xmlns:xlink="http://www.w3.org/1999/xlink">
    <!-- Generator: Sketch 52.4 (67378) - http://www.bohemiancoding.com/sketch -->
    <title>图标/ic_peoplenearby</title>
    <desc>Created with Sketch.</desc>
    <defs>
        <linearGradient x1="50%" y1="4.14785043%" x2="50%" y2="100%" id="linearGradient-1">
            <stop stop-color="#FFBBBB" offset="0%"></stop>
            <stop stop-color="#FF7373" offset="100%"></stop>
        </linearGradient>
        <path d="M30.2702703,23.8918919 C29.0163243,23.8918919 28,22.8755676 28,21.6216216 C28,20.3676757 29.0163243,19.3513514 30.2702703,19.3513514 C31.5242162,19.3513514 32.5405405,20.3676757 32.5405405,21.6216216 C32.5405405,22.8755676 31.5242162,23.8918919 30.2702703,23.8918919 M34.0540541,21.6216216 C34.0540541,19.5352432 32.3566486,17.8378378 30.2702703,17.8378378 C28.1838919,17.8378378 26.4864865,19.5352432 26.4864865,21.6216216 C26.4864865,23.708 28.1838919,25.4054054 30.2702703,25.4054054 C32.3566486,25.4054054 34.0540541,23.708 34.0540541,21.6216216 M37.1764324,36.4116757 C36.7655135,36.3602162 36.3833514,36.6523243 36.3303784,37.067027 C36.2774054,37.4817297 36.571027,37.8601081 36.9857297,37.9138378 C42.255027,38.5858378 43.8918919,39.7974054 43.8918919,40.1621622 C43.8918919,40.9544865 39.2575135,42.8108108 30.2702703,42.8108108 C21.283027,42.8108108 16.6486486,40.9544865 16.6486486,40.1621622 C16.6486486,39.7974054 18.2855135,38.5858378 23.5548108,37.9138378 C23.9695135,37.8601081 24.2631351,37.4817297 24.2101622,37.067027 C24.1571892,36.6523243 23.7780541,36.3602162 23.3641081,36.4116757 C19.6098378,36.8914595 15.1351351,37.9304865 15.1351351,40.1621622 C15.1351351,43.4548108 25.0357838,44.3243243 30.2702703,44.3243243 C35.5047568,44.3243243 45.4054054,43.4548108 45.4054054,40.1621622 C45.4054054,37.9304865 40.9307027,36.8914595 37.1764324,36.4116757 M37.8378378,21.5391351 C37.8378378,17.4057297 34.4498378,14.0540541 30.2702703,14.0540541 C26.0907027,14.0540541 22.7027027,17.4057297 22.7027027,21.5391351 C22.7027027,25.6732973 27.3885405,34.5810811 30.2702703,40.5405405 C33.4138378,34.5810811 37.8378378,25.6732973 37.8378378,21.5391351" id="path-2"></path>
        <filter x="-23.1%" y="-16.5%" width="146.3%" height="146.3%" filterUnits="objectBoundingBox" id="filter-4">
            <feOffset dx="0" dy="2" in="SourceAlpha" result="shadowOffsetOuter1"></feOffset>
            <feGaussianBlur stdDeviation="2" in="shadowOffsetOuter1" result="shadowBlurOuter1"></feGaussianBlur>
            <feColorMatrix values="0 0 0 0 1   0 0 0 0 0.533333333   0 0 0 0 0.57254902  0 0 0 1 0" type="matrix" in="shadowBlurOuter1"></feColorMatrix>
        </filter>
    </defs>
    <g id="图标/ic_peoplenearby" stroke="none" stroke-width="1" fill="none" fill-rule="evenodd">
        <g id="分组-2">
            <circle id="椭圆形" fill="#FFF4F4" cx="80" cy="80" r="80"></circle>
            <g id="群组" transform="translate(49.729730, 49.729730)">
                <path d="M30.2702703,60.5405405 L30.2702703,60.5405405 C13.5524616,60.5405405 -1.50537259e-15,46.9880789 -3.55271368e-15,30.2702703 L0,30.2702703 C-2.04734108e-15,13.5524616 13.5524616,3.07101163e-15 30.2702703,0 L30.2702703,0 C46.9880789,-3.07101163e-15 60.5405405,13.5524616 60.5405405,30.2702703 L60.5405405,30.2702703 C60.5405405,46.9880789 46.9880789,60.5405405 30.2702703,60.5405405 Z" id="路径" fill="url(#linearGradient-1)"></path>
                <mask id="mask-3" fill="white">
                    <use xlink:href="#path-2"></use>
                </mask>
                <g id="Mask">
                    <use fill="black" fill-opacity="1" filter="url(#filter-4)" xlink:href="#path-2"></use>
                    <use fill="#FFFFFF" fill-rule="evenodd" xlink:href="#path-2"></use>
                </g>
            </g>
        </g>
    </g>
</svg>