<?xml version="1.0" encoding="UTF-8"?>
<svg width="160px" height="160px" viewBox="0 0 160 160" version="1.1" xmlns="http://www.w3.org/2000/svg" xmlns:xlink="http://www.w3.org/1999/xlink">
    <!-- Generator: Sketch 52.4 (67378) - http://www.bohemiancoding.com/sketch -->
    <title>图标/ic_powerful</title>
    <desc>Created with Sketch.</desc>
    <defs>
        <linearGradient x1="50%" y1="0%" x2="50%" y2="95.9799409%" id="linearGradient-1">
            <stop stop-color="#FFC393" offset="0%"></stop>
            <stop stop-color="#FF8A63" offset="100%"></stop>
        </linearGradient>
        <path d="M22.5490006,37.5846815 C20.5599148,37.5846815 18.6793245,36.8252123 17.305047,35.4147696 C15.8946043,34.0043269 15.1351351,32.1599018 15.1351351,30.170816 C15.1351351,28.1817301 15.8946043,26.3011398 17.305047,24.9268623 C18.7154897,23.5164196 20.5599148,22.7569505 22.5490006,22.7569505 C24.5380865,22.7569505 26.4186767,23.5164196 27.7929542,24.9268623 L35.5323065,32.6662146 C36.2013627,33.3352708 37.08741,33.6969227 37.9915399,33.6969227 C38.9318351,33.6969227 39.7817172,33.3171882 40.4507734,32.6662146 C41.1198295,31.9971584 41.4814815,31.1111111 41.4814815,30.2069812 C41.4814815,29.266686 41.1017469,28.4168039 40.4507734,27.7477477 C39.7817172,27.0786916 38.8956699,26.7170396 37.9915399,26.7170396 C37.0512448,26.7170396 36.2013627,27.0967742 35.5323065,27.7477477 L35.5323065,27.7477477 C35.1489956,28.1310587 34.5275258,28.1310587 34.1442149,27.7477477 C34.1405195,27.7440524 34.1368537,27.7403276 34.1332178,27.7365736 L32.7362323,26.2942314 C32.3512401,25.8967395 32.3562944,25.2639065 32.7475863,24.8726146 C34.158029,23.4621718 36.0024541,22.7027027 37.9915399,22.7027027 C39.9806258,22.7027027 41.8612161,23.4621718 43.2354936,24.8726146 C44.6459363,26.2830573 45.4054054,28.1274823 45.4054054,30.1165682 C45.4054054,32.105654 44.6459363,33.9862443 43.2354936,35.3605218 C41.8250509,36.7709645 39.9806258,37.5304337 37.9915399,37.5304337 C36.0024541,37.5304337 34.1218638,36.7709645 32.7475863,35.3605218 L25.008234,27.7115826 C24.3391779,27.0425264 23.4531305,26.6808744 22.5490006,26.6808744 C21.6087055,26.6808744 20.7588233,27.060609 20.0897672,27.7115826 C19.420711,28.3625561 19.0590591,29.2847686 19.0590591,30.170816 C19.0590591,31.1111111 19.4387936,31.9609933 20.0897672,32.6300494 C20.7407407,33.2991056 21.6448707,33.6607575 22.5490006,33.6607575 C23.4531305,33.6607575 24.3391779,33.281023 25.008234,32.6300494 L25.008234,32.6300494 C25.397717,32.2405664 26.0291937,32.2405664 26.4186767,32.6300494 L27.7929542,34.0043269 C28.1824372,34.3938099 28.1824372,35.0252866 27.7929542,35.4147696 C26.4186767,36.8432949 24.5380865,37.5846815 22.5490006,37.5846815 Z" id="path-2"></path>
        <filter x="-23.1%" y="-33.6%" width="146.3%" height="194.1%" filterUnits="objectBoundingBox" id="filter-3">
            <feOffset dx="0" dy="2" in="SourceAlpha" result="shadowOffsetOuter1"></feOffset>
            <feGaussianBlur stdDeviation="2" in="shadowOffsetOuter1" result="shadowBlurOuter1"></feGaussianBlur>
            <feColorMatrix values="0 0 0 0 1   0 0 0 0 0.654901961   0 0 0 0 0.48627451  0 0 0 1 0" type="matrix" in="shadowBlurOuter1"></feColorMatrix>
        </filter>
    </defs>
    <g id="图标/ic_powerful" stroke="none" stroke-width="1" fill="none" fill-rule="evenodd">
        <g id="分组-2">
            <circle id="椭圆形" fill="#FFF7F5" cx="80" cy="80" r="80"></circle>
            <g id="分组" transform="translate(49.729730, 49.729730)">
                <path d="M12.6038796,4.32432432 L47.936661,4.32432432 C48.8271181,1.80498946 51.2297971,0 54.0540541,0 C57.6364416,0 60.5405405,2.90409892 60.5405405,6.48648649 C60.5405405,9.31074341 58.7355511,11.7134225 56.2162162,12.6038796 L56.2162162,47.936661 C58.7355511,48.8271181 60.5405405,51.2297971 60.5405405,54.0540541 C60.5405405,57.6364416 57.6364416,60.5405405 54.0540541,60.5405405 C51.2297971,60.5405405 48.8271181,58.7355511 47.936661,56.2162162 L12.6038796,56.2162162 C11.7134225,58.7355511 9.31074341,60.5405405 6.48648649,60.5405405 C2.90409892,60.5405405 0,57.6364416 0,54.0540541 C0,51.2297971 1.80498946,48.8271181 4.32432432,47.936661 L4.32432432,12.6038796 C1.80498946,11.7134225 0,9.31074341 0,6.48648649 C0,2.90409892 2.90409892,0 6.48648649,0 C9.31074341,0 11.7134225,1.80498946 12.6038796,4.32432432 Z" id="合并形状" fill="url(#linearGradient-1)"></path>
                <g id="路径">
                    <use fill="black" fill-opacity="1" filter="url(#filter-3)" xlink:href="#path-2"></use>
                    <use fill="#FFFFFF" fill-rule="evenodd" xlink:href="#path-2"></use>
                </g>
            </g>
        </g>
    </g>
</svg>