<?xml version="1.0" encoding="UTF-8"?>
<svg width="160px" height="160px" viewBox="0 0 160 160" version="1.1" xmlns="http://www.w3.org/2000/svg" xmlns:xlink="http://www.w3.org/1999/xlink">
    <!-- Generator: Sketch 52.4 (67378) - http://www.bohemiancoding.com/sketch -->
    <title>图标/ic_permission</title>
    <desc>Created with Sketch.</desc>
    <defs>
        <linearGradient x1="50%" y1="0%" x2="50%" y2="100%" id="linearGradient-1">
            <stop stop-color="#F9B5FF" offset="0%"></stop>
            <stop stop-color="#F182FF" offset="100%"></stop>
        </linearGradient>
        <path d="M34.9759713,20.8691723 L24.5248733,31.3424662 C24.3861449,31.4801744 24.1736056,31.5107945 24.001647,31.4178463 C20.6764105,29.7130152 16.6047466,30.6883699 14.4128209,33.7147466 C12.2209459,36.7411486 12.5640203,40.9139358 15.2207686,43.5416723 C17.8775422,46.1694088 22.0538767,46.4666216 25.0559797,44.2415794 C28.0581081,42.0165625 28.9886402,37.9344088 27.2473733,34.6280997 C27.1544251,34.4561411 27.1850452,34.2436017 27.3227534,34.1048733 L31.6814443,29.7329054 C31.8544003,29.5609882 32.1337247,29.5609882 32.3066554,29.7329054 L34.3773649,31.7858784 C34.6314527,32.0377872 35.0411402,32.0377872 35.295228,31.7858784 L38.7050169,28.3760642 C38.9564443,28.1234966 38.9564443,27.715228 38.7050169,27.4626351 L36.6343074,25.391951 C36.4623902,25.2189949 36.4623902,24.9396706 36.6343074,24.7667399 L37.7650084,23.6360389 C38.2002365,23.1998733 38.2002365,22.4936824 37.7650084,22.0575169 L36.5589274,20.8691723 C36.3492651,20.6587875 36.0644679,20.5405336 35.7674493,20.5405336 C35.4704307,20.5405336 35.1856336,20.6587875 34.9759713,20.8691723 Z M23.602576,38.117728 C23.5960135,39.6001689 22.5420608,40.8710135 21.0864274,41.1517061 C19.6307686,41.4323986 18.1798733,40.6445186 17.6225676,39.2708024 C17.0652872,37.8970861 17.5572213,36.3210473 18.7969764,35.5082601 C20.0367568,34.695473 21.6782432,34.8728378 22.7157517,35.9317314 C23.2875355,36.5152857 23.6061845,37.3007462 23.602576,38.117728 Z" id="path-2"></path>
        <filter x="-27.0%" y="-19.8%" width="153.3%" height="155.6%" filterUnits="objectBoundingBox" id="filter-3">
            <feOffset dx="0" dy="2" in="SourceAlpha" result="shadowOffsetOuter1"></feOffset>
            <feGaussianBlur stdDeviation="2" in="shadowOffsetOuter1" result="shadowBlurOuter1"></feGaussianBlur>
            <feColorMatrix values="0 0 0 0 0.964705882   0 0 0 0 0.623529412   0 0 0 0 1  0 0 0 1 0" type="matrix" in="shadowBlurOuter1"></feColorMatrix>
        </filter>
    </defs>
    <g id="图标/ic_permission" stroke="none" stroke-width="1" fill="none" fill-rule="evenodd">
        <g id="分组-2">
            <circle id="椭圆形" fill="#FDF4FF" cx="80" cy="80" r="80"></circle>
            <g id="分组" transform="translate(54.054054, 46.486486)">
                <path d="M25.9460216,66.3563399 L25.241553,66.0834615 C2.61643545,57.3384746 0,45.9078099 0,38.070852 L0,8.13824541 L2.01976973,8.20748774 C17.7465643,8.74301727 24.4432967,1.64514909 24.5064026,1.57590676 L25.9479914,3.0908609e-13 L27.3875347,1.57590676 C27.4404891,1.63295216 33.7869947,8.23597253 48.1943974,8.23597253 C48.1943974,8.23597253 48.1943974,8.23597253 48.1964428,8.23597253 C48.7441693,8.23597253 49.3040927,8.22779073 49.8721222,8.20748774 L51.8918919,8.13824541 L51.8918918,38.070852 C51.8918918,45.90781 49.2755321,57.3383989 26.6504145,66.0834615 L25.9460216,66.3563399 Z" id="路径" fill="url(#linearGradient-1)"></path>
                <g id="形状">
                    <use fill="black" fill-opacity="1" filter="url(#filter-3)" xlink:href="#path-2"></use>
                    <use fill="#FFFFFF" fill-rule="evenodd" xlink:href="#path-2"></use>
                </g>
            </g>
        </g>
    </g>
</svg>