<?xml version="1.0" encoding="UTF-8"?>
<svg width="160px" height="160px" viewBox="0 0 160 160" version="1.1" xmlns="http://www.w3.org/2000/svg" xmlns:xlink="http://www.w3.org/1999/xlink">
    <!-- Generator: Sketch 52.4 (67378) - http://www.bohemiancoding.com/sketch -->
    <title>图标/ic_rapid</title>
    <desc>Created with Sketch.</desc>
    <defs>
        <linearGradient x1="50%" y1="0%" x2="50%" y2="100%" id="linearGradient-1">
            <stop stop-color="#FFE287" offset="0%"></stop>
            <stop stop-color="#FFCB48" offset="100%"></stop>
        </linearGradient>
        <path d="M30.0222452,45.460992 C29.9412269,45.460992 29.8802214,45.4394449 29.8397289,45.3999864 C29.5556813,45.3176673 29.4544168,45.1566981 29.5354351,44.9131763 L31.4219369,33.7775158 L23.2068702,33.7775158 C23.0041077,33.7775158 22.8620839,33.696264 22.7807988,33.533994 C22.6592881,33.3730248 22.6795343,33.1905085 22.8418043,32.9864118 L35.4989341,16.4348012 C35.6612041,16.1912794 35.8437204,16.1520544 36.0465163,16.3130236 C36.2492788,16.3535161 36.3508101,16.5170869 36.3508101,16.7998337 L34.4643083,27.9357611 L41.7057214,27.9357611 C41.9084839,27.9357611 42.0505077,28.0180802 42.1317928,28.1790494 C42.1722853,28.3413194 42.1722853,28.5238357 42.1317928,28.726865 L30.4483167,45.2784757 C30.3265391,45.3999864 30.1845153,45.460992 30.0222452,45.460992 Z" id="path-2"></path>
        <filter x="-33.4%" y="-16.3%" width="169.3%" height="146.5%" filterUnits="objectBoundingBox" id="filter-3">
            <feOffset dx="0" dy="2" in="SourceAlpha" result="shadowOffsetOuter1"></feOffset>
            <feGaussianBlur stdDeviation="2" in="shadowOffsetOuter1" result="shadowBlurOuter1"></feGaussianBlur>
            <feColorMatrix values="0 0 0 0 0.980392157   0 0 0 0 0.815072863   0 0 0 0 0.364705882  0 0 0 1 0" type="matrix" in="shadowBlurOuter1"></feColorMatrix>
        </filter>
    </defs>
    <g id="图标/ic_rapid" stroke="none" stroke-width="1" fill="none" fill-rule="evenodd">
        <g id="分组-2">
            <circle id="椭圆形" fill="#FFFCEC" cx="80" cy="80" r="80"></circle>
            <g id="分组" transform="translate(47.567568, 48.648649)">
                <path d="M13.8180932,62.4413623 C13.1364204,62.4407101 12.4896321,62.1398704 12.0499513,61.6189491 C11.6102705,61.0980278 11.4223278,60.4099019 11.5361675,59.7378017 L14.8883974,39.9742406 L0.689491538,25.9815189 C0.0644428975,25.3646973 -0.15811948,24.4474923 0.1147145,23.612797 C0.38754848,22.7781016 1.10887175,22.1694213 1.97756327,22.0408534 L21.578957,19.1612254 L30.3498916,1.1954047 C31.1259779,-0.398468234 33.7391882,-0.398468234 34.5129579,1.1954047 L43.2838924,19.1612254 L62.8852862,22.0408534 C63.7543781,22.1686996 64.4764001,22.7770984 64.7497678,23.611925 C65.0231355,24.4467517 64.8008174,25.3643788 64.1756746,25.9815189 L49.9767688,39.9742406 L53.2525483,59.2906832 C53.5276397,60.0035907 53.4334877,60.8062969 53.0008941,61.4361977 C52.5683004,62.0660986 51.8529143,62.4421631 51.0887731,62.4413623 L51.0424396,62.4413623 C50.6694548,62.4413623 50.29647,62.3510119 49.953602,62.1703112 L32.4325831,52.8549579 L14.9069308,62.1703112 C14.5714419,62.3479002 14.1976857,62.4409417 13.8180932,62.4413623 Z" id="路径" fill="url(#linearGradient-1)"></path>
                <g id="路径">
                    <use fill="black" fill-opacity="1" filter="url(#filter-3)" xlink:href="#path-2"></use>
                    <use fill="#FFFFFF" fill-rule="evenodd" xlink:href="#path-2"></use>
                </g>
            </g>
        </g>
    </g>
</svg>