<?xml version="1.0" encoding="UTF-8"?>
<svg width="160px" height="160px" viewBox="0 0 160 160" version="1.1" xmlns="http://www.w3.org/2000/svg" xmlns:xlink="http://www.w3.org/1999/xlink">
    <!-- Generator: Sketch 52.4 (67378) - http://www.bohemiancoding.com/sketch -->
    <title>图标/ic_taste</title>
    <desc>Created with Sketch.</desc>
    <defs>
        <linearGradient x1="50%" y1="1.55346821%" x2="50%" y2="100%" id="linearGradient-1">
            <stop stop-color="#D3F782" offset="0%"></stop>
            <stop stop-color="#95E154" offset="100%"></stop>
        </linearGradient>
        <path d="M28.3830869,16.2162162 C30.4085213,16.2162162 33.1450469,18.0565071 36.5926639,21.7378995 C39.2091878,21.0504252 41.3700295,20.7058773 43.0743783,20.7058773 C48.7395945,20.7058773 49.3728468,24.5015785 44.9757568,32.0946023 C50.289887,39.731404 49.837448,43.5506155 43.6184401,43.5506155 C42.0105792,43.5506155 40.0175777,43.2960555 37.6386248,42.7853139 C34.4926338,46.6937026 31.8971912,48.6491129 29.8547296,48.6491129 C27.2390164,48.6491129 25.528992,45.446034 24.7238453,39.0366334 C13.6009834,34.9336766 13.3844938,30.5980486 24.0751874,26.0289389 C24.2470817,19.4882047 25.6830482,16.2162162 28.3830869,16.2162162 Z M37.1837534,37.6150695 C38.6310714,36.8684141 40.0102803,35.8915196 41.0935391,34.6146658 C41.1746213,35.3888851 41.1802971,37.4950858 40.2510946,38.1493213 C39.5635172,38.6316883 38.3902572,38.2174202 37.5242988,37.7853167 L37.1837534,37.6150695 Z M28.3774111,39.9969085 C28.3944384,39.9969085 28.4114657,39.9960978 28.4293038,39.9952871 C28.6757938,39.9798838 31.9036778,39.7553197 35.2912939,38.4573877 C35.3383216,38.497112 35.391025,38.5319721 35.4485934,38.5603467 L36.7994236,39.2356604 C38.6359363,40.1533738 40.1116331,40.2328224 41.1875945,39.4723851 C43.0322155,38.1703996 42.7662657,34.9770491 42.7030216,34.4095585 L42.7030216,31.7545133 C42.7030216,31.3661876 42.4265311,31.0321789 42.0454446,30.9584051 C41.660304,30.8878742 41.2832715,31.0929815 41.1389451,31.4537433 C38.660261,37.6491189 28.4301146,38.3706427 28.3271401,38.3763176 C27.880377,38.4055028 27.5406424,38.789775 27.569832,39.2364711 C27.5965891,39.6661426 27.953351,39.9969085 28.3774111,39.9969085 Z M26.7570636,29.1882399 C25.4135309,29.1882399 24.3245963,30.2770111 24.3245963,31.6203424 C24.3245963,32.9644843 25.4135309,34.0532555 26.7570636,34.0532555 C28.1005963,34.0532555 29.1895309,32.9644843 29.1895309,31.6203424 C29.1895309,30.2770111 28.1005963,29.1882399 26.7570636,29.1882399 Z M26.7570636,30.8096415 C27.2046376,30.8096415 27.567886,31.1736462 27.567886,31.6203424 C27.567886,32.0678492 27.2046376,32.4318539 26.7570636,32.4318539 C26.3094896,32.4318539 25.9462412,32.0678492 25.9462412,31.6203424 C25.9462412,31.1736462 26.3094896,30.8096415 26.7570636,30.8096415 Z M36.4884732,24.3232243 C35.1449404,24.3232243 34.0560059,25.4128062 34.0560059,26.7553268 C34.0560059,28.0994687 35.1449404,29.1882399 36.4884732,29.1882399 C37.8320059,29.1882399 38.9209404,28.0994687 38.9209404,26.7553268 C38.9209404,25.4128062 37.8320059,24.3232243 36.4884732,24.3232243 Z M36.4884732,25.944626 C36.9360471,25.944626 37.2992956,26.3086306 37.2992956,26.7553268 C37.2992956,27.2028336 36.9360471,27.5668383 36.4884732,27.5668383 C36.0408992,27.5668383 35.6776508,27.2028336 35.6776508,26.7553268 C35.6776508,26.3086306 36.0408992,25.944626 36.4884732,25.944626 Z" id="path-2"></path>
        <filter x="-21.6%" y="-15.4%" width="143.2%" height="143.2%" filterUnits="objectBoundingBox" id="filter-3">
            <feOffset dx="0" dy="2" in="SourceAlpha" result="shadowOffsetOuter1"></feOffset>
            <feGaussianBlur stdDeviation="2" in="shadowOffsetOuter1" result="shadowBlurOuter1"></feGaussianBlur>
            <feColorMatrix values="0 0 0 0 0.760784314   0 0 0 0 0.97254902   0 0 0 0 0.458823529  0 0 0 1 0" type="matrix" in="shadowBlurOuter1"></feColorMatrix>
        </filter>
    </defs>
    <g id="图标/ic_taste" stroke="none" stroke-width="1" fill="none" fill-rule="evenodd">
        <g id="分组-2">
            <circle id="椭圆形" fill="#F8FFEC" cx="80" cy="80" r="80"></circle>
            <g id="分组" transform="translate(47.567568, 47.567568)">
                <path d="M12.7216473,12.7216473 C16.1142771,5.2197913 23.663781,0 32.4324324,0 C41.2010839,0 48.7505878,5.2197913 52.1432175,12.7216473 C59.6450749,16.114279 64.8648649,23.6637821 64.8648649,32.4324324 C64.8648649,41.2010828 59.6450749,48.7505859 52.1432203,52.1432163 C48.7505878,59.6450736 41.2010839,64.8648649 32.4324324,64.8648649 C23.663781,64.8648649 16.1142771,59.6450736 12.7216473,52.1432175 C5.21979,48.7505859 -3.55271368e-15,41.2010828 -3.55271368e-15,32.4324324 C-3.55271368e-15,23.6637821 5.21979,16.114279 12.7216445,12.7216486 Z" id="合并形状" fill="url(#linearGradient-1)"></path>
                <g id="Mask">
                    <use fill="black" fill-opacity="1" filter="url(#filter-3)" xlink:href="#path-2"></use>
                    <use fill="#FFFFFF" fill-rule="evenodd" xlink:href="#path-2"></use>
                </g>
            </g>
        </g>
    </g>
</svg>