<?xml version="1.0" encoding="UTF-8"?>
<svg width="160px" height="160px" viewBox="0 0 160 160" version="1.1" xmlns="http://www.w3.org/2000/svg" xmlns:xlink="http://www.w3.org/1999/xlink">
    <!-- Generator: Sketch 52.4 (67378) - http://www.bohemiancoding.com/sketch -->
    <title>图标/ic_video</title>
    <desc>Created with Sketch.</desc>
    <defs>
        <linearGradient x1="50%" y1="0%" x2="50%" y2="100%" id="linearGradient-1">
            <stop stop-color="#FFE4A5" offset="0%"></stop>
            <stop stop-color="#FFC873" offset="100%"></stop>
        </linearGradient>
        <path d="M42.4647666,22.3734025 C41.9886604,22.1651871 41.4327706,22.2793488 41.0773126,22.6588068 L35.4593886,27.6131658 L35.4593886,25.1891753 C35.4593886,23.2270208 33.8546381,21.6216216 31.8918349,21.6216216 L20.8648509,21.6216216 C18.9026964,21.6216216 17.2972973,23.2270208 17.2972973,25.1891753 L17.2972973,36.2161592 C17.2972973,38.1783137 18.9026964,39.7837129 20.8648509,39.7837129 L31.8918349,39.7837129 C33.8546381,39.7837129 35.4593886,38.1783137 35.4593886,36.2161592 L35.4593886,33.7707634 L41.0779612,38.6310687 C41.3121225,38.8775543 41.6364455,39.0183105 41.9756874,39.020905 C42.1436868,39.020905 42.3103888,38.9865268 42.4647666,38.9190676 C42.9441161,38.7004739 43.2489798,38.2191784 43.2431419,37.6918292 L43.2431419,23.5993436 C43.2496284,23.072643 42.9441161,22.5913476 42.4647666,22.3734025" id="path-2"></path>
        <filter x="-27.0%" y="-27.5%" width="154.0%" height="177.1%" filterUnits="objectBoundingBox" id="filter-4">
            <feOffset dx="0" dy="2" in="SourceAlpha" result="shadowOffsetOuter1"></feOffset>
            <feGaussianBlur stdDeviation="2" in="shadowOffsetOuter1" result="shadowBlurOuter1"></feGaussianBlur>
            <feColorMatrix values="0 0 0 0 1   0 0 0 0 0.850980392   0 0 0 0 0.57254902  0 0 0 1 0" type="matrix" in="shadowBlurOuter1"></feColorMatrix>
        </filter>
    </defs>
    <g id="图标/ic_video" stroke="none" stroke-width="1" fill="none" fill-rule="evenodd">
        <g id="分组-2">
            <circle id="椭圆形" fill="#FFFBEA" cx="80" cy="80" r="80"></circle>
            <g id="钱包" transform="translate(49.729730, 49.729730)">
                <path d="M12.6038796,4.32432432 L47.936661,4.32432432 C48.8271181,1.80498946 51.2297971,0 54.0540541,0 C57.6364416,0 60.5405405,2.90409892 60.5405405,6.48648649 C60.5405405,9.31074341 58.7355511,11.7134225 56.2162162,12.6038796 L56.2162162,47.936661 C58.7355511,48.8271181 60.5405405,51.2297971 60.5405405,54.0540541 C60.5405405,57.6364416 57.6364416,60.5405405 54.0540541,60.5405405 C51.2297971,60.5405405 48.8271181,58.7355511 47.936661,56.2162162 L12.6038796,56.2162162 C11.7134225,58.7355511 9.31074341,60.5405405 6.48648649,60.5405405 C2.90409892,60.5405405 0,57.6364416 0,54.0540541 C0,51.2297971 1.80498946,48.8271181 4.32432432,47.936661 L4.32432432,12.6038796 C1.80498946,11.7134225 0,9.31074341 0,6.48648649 C0,2.90409892 2.90409892,0 6.48648649,0 C9.31074341,0 11.7134225,1.80498946 12.6038796,4.32432432 Z" id="合并形状" fill="url(#linearGradient-1)"></path>
                <mask id="mask-3" fill="white">
                    <use xlink:href="#path-2"></use>
                </mask>
                <g id="Mask">
                    <use fill="black" fill-opacity="1" filter="url(#filter-4)" xlink:href="#path-2"></use>
                    <use fill="#FFFFFF" fill-rule="evenodd" xlink:href="#path-2"></use>
                </g>
            </g>
        </g>
    </g>
</svg>