<?xml version="1.0" encoding="UTF-8"?>
<svg width="160px" height="160px" viewBox="0 0 160 160" version="1.1" xmlns="http://www.w3.org/2000/svg" xmlns:xlink="http://www.w3.org/1999/xlink">
    <!-- Generator: Sketch 52.4 (67378) - http://www.bohemiancoding.com/sketch -->
    <title>图标/ic_wallet</title>
    <desc>Created with Sketch.</desc>
    <defs>
        <linearGradient x1="50%" y1="0%" x2="50%" y2="100%" id="linearGradient-1">
            <stop stop-color="#95B4FF" offset="0%"></stop>
            <stop stop-color="#7397FF" offset="100%"></stop>
        </linearGradient>
        <path d="M30.9779622,21.1158027 C28.5897038,21.1158027 26.6536379,23.0518686 26.6536379,25.440127 L26.6536379,27.6022891 C26.6536379,29.9905475 28.5897038,31.9266135 30.9779622,31.9266135 L55.8428271,31.9266135 L55.8428271,21.1158027 L30.9779622,21.1158027 Z M30.9779622,16.7914783 L60.1671514,16.7914783 L60.1671514,36.2509378 L30.9779622,36.2509378 C26.2014455,36.2509378 22.3293136,32.3788059 22.3293136,27.6022891 L22.3293136,25.440127 C22.3293136,20.6636102 26.2014455,16.7914783 30.9779622,16.7914783 Z M28.38528,26.5162452 L28.38528,26.513533 C28.386029,24.4314303 30.0745139,22.7441597 32.1566166,22.7449087 C34.2387194,22.7456576 35.92599,24.4341425 35.9252411,26.5162452 L35.9252411,26.5189574 C35.9252411,28.6019395 34.2355304,30.2862257 32.1552605,30.2835135 C30.0722785,30.2835135 28.38528,28.5992272 28.38528,26.5162452 Z" id="path-2"></path>
        <filter x="-18.5%" y="-25.7%" width="137.0%" height="171.9%" filterUnits="objectBoundingBox" id="filter-3">
            <feOffset dx="0" dy="2" in="SourceAlpha" result="shadowOffsetOuter1"></feOffset>
            <feGaussianBlur stdDeviation="2" in="shadowOffsetOuter1" result="shadowBlurOuter1"></feGaussianBlur>
            <feColorMatrix values="0 0 0 0 0.529411765   0 0 0 0 0.658823529   0 0 0 0 1  0 0 0 1 0" type="matrix" in="shadowBlurOuter1"></feColorMatrix>
        </filter>
    </defs>
    <g id="图标/ic_wallet" stroke="none" stroke-width="1" fill="none" fill-rule="evenodd">
        <g id="分组-2">
            <circle id="椭圆形" fill="#F5F8FF" cx="80" cy="80" r="80"></circle>
            <g id="钱包" transform="translate(49.729730, 54.054054)">
                <path d="M30.2702703,17.0994305 C26.1124174,17.103915 22.7429303,20.4734021 22.7384458,24.6312549 L22.7384458,28.3985232 C22.7429303,32.5563761 26.1124174,35.9258632 30.2702703,35.9303477 L60.4057046,35.9303477 L60.4057046,49.1198551 C60.4012178,51.1987796 58.7146534,52.8817039 56.6357241,52.881699 L3.899392,52.881699 C1.82258041,52.8787156 0.139316081,51.196664 0.134835892,49.1198551 L0.134835892,3.91263524 C0.139316081,1.83582634 1.82258041,0.15377474 3.899392,0.150791351 L56.6357241,0.150791351 C58.7214184,0.150791351 60.4057046,1.83778984 60.4057046,3.91805968 L60.4057046,17.0994305 L30.2702703,17.0994305 Z M60.4057046,32.1685038 L30.2702703,32.1685038 C28.1904655,32.1640236 26.5059854,30.4783307 26.5030019,28.3985232 L26.5030019,24.6312549 C26.5059895,22.5518888 28.1909042,20.8669742 30.2702703,20.8639866 L60.4057046,20.8639866 L60.4057046,32.1685038 Z" id="形状" fill="url(#linearGradient-1)"></path>
                <g id="合并形状">
                    <use fill="black" fill-opacity="1" filter="url(#filter-3)" xlink:href="#path-2"></use>
                    <use fill="#FFFFFF" fill-rule="evenodd" xlink:href="#path-2"></use>
                </g>
            </g>
        </g>
    </g>
</svg>